<?xml version="1.0" encoding="iso-8859-1"?>
<!-- Generator: Adobe Illustrator 19.0.0, SVG Export Plug-In . SVG Version: 6.00 Build 0)  -->
<svg version="1.1" id="Layer_1" xmlns="http://www.w3.org/2000/svg" xmlns:xlink="http://www.w3.org/1999/xlink" x="0px" y="0px"
	 viewBox="0 0 512 512" style="enable-background:new 0 0 512 512;" xml:space="preserve">
<path style="fill:#518EF8;" d="M473.061,252.448V442.83c0,15.943-12.905,28.86-28.86,28.86H67.787
	c-15.943,0-28.86-12.918-28.86-28.86V252.448c8.988,5.318,19.476,8.368,30.67,8.368c15.248,0,29.282-5.69,39.981-15.162
	c10.699-9.459,18.038-22.724,19.885-37.848l2.058-16.91c-0.298,2.541-0.459,5.083-0.459,7.575c0,33.931,27.584,62.345,62.469,62.345
	c34.501,0,62.469-27.968,62.469-62.457c0,34.489,27.955,62.457,62.457,62.457c34.91,0,62.481-28.414,62.481-62.37
	c0-2.467-0.149-4.959-0.459-7.488l2.058,16.848c1.847,15.124,9.186,28.389,19.873,37.848c10.699,9.471,24.745,15.162,39.981,15.162
	C453.585,260.816,464.073,257.767,473.061,252.448z"/>
<g>
	<path style="fill:#ACD1FC;" d="M380.479,190.959c0.31,2.529,0.459,5.021,0.459,7.488c0,33.956-27.571,62.37-62.481,62.37
		c-34.501,0-62.457-27.968-62.457-62.457V40.309h106.119l18.348,150.488C380.479,190.847,380.479,190.909,380.479,190.959z"/>
	<path style="fill:#ACD1FC;" d="M149.868,40.309l-18.335,150.488c0,0.037-0.012,0.062-0.012,0.099l-2.058,16.91
		c-1.847,15.124-9.186,28.389-19.885,37.848c-10.699,9.471-24.732,15.162-39.981,15.162c-11.195,0-21.683-3.05-30.67-8.368v-0.012
		c-17.74-10.488-29.629-29.815-29.629-51.919v-4.475L54.77,40.309C54.77,40.309,149.868,40.309,149.868,40.309z"/>
</g>
<g>
	<path style="fill:#3A5BBC;" d="M473.061,252.448c-8.988,5.318-19.476,8.368-30.67,8.368c-15.236,0-29.282-5.69-39.981-15.162
		c-10.686-9.459-18.025-22.724-19.873-37.848l-2.058-16.848c0-0.05,0-0.112-0.012-0.161L362.119,40.309h95.098l45.485,155.732v4.475
		C502.702,222.621,490.801,241.948,473.061,252.448z"/>
	<path style="fill:#3A5BBC;" d="M256,40.309V198.36c0,34.489-27.968,62.457-62.469,62.457c-34.885,0-62.469-28.414-62.469-62.345
		c0-2.492,0.161-5.033,0.459-7.575c0-0.037,0.012-0.062,0.012-0.099l18.335-150.488H256z"/>
	<path style="fill:#3A5BBC;" d="M473.061,252.448v28.922c-8.988,5.318-19.476,8.368-30.67,8.368
		c-15.236,0-29.282-5.69-39.981-15.162c-10.686-9.459-18.025-22.724-19.873-37.848l-2.058-16.848
		c0.31,2.529,0.459,5.021,0.459,7.488c0,33.956-27.571,62.37-62.481,62.37c-34.501,0-62.457-27.968-62.457-62.457
		c0,34.489-27.968,62.457-62.469,62.457c-34.885,0-62.469-28.414-62.469-62.345c0-2.492,0.161-5.033,0.459-7.575l-2.058,16.91
		c-1.847,15.124-9.186,28.389-19.885,37.848c-10.699,9.471-24.732,15.162-39.981,15.162c-11.195,0-21.683-3.05-30.67-8.368v-28.922
		c8.988,5.318,19.476,8.368,30.67,8.368c15.248,0,29.282-5.69,39.981-15.162c10.699-9.459,18.038-22.724,19.885-37.848l2.058-16.91
		c-0.298,2.541-0.459,5.083-0.459,7.575c0,33.931,27.584,62.345,62.469,62.345c34.501,0,62.469-27.968,62.469-62.457
		c0,34.489,27.955,62.457,62.457,62.457c34.91,0,62.481-28.414,62.481-62.37c0-2.467-0.149-4.959-0.459-7.488l2.058,16.848
		c1.847,15.124,9.186,28.389,19.873,37.848c10.699,9.471,24.745,15.162,39.981,15.162
		C453.585,260.816,464.073,257.767,473.061,252.448z"/>
</g>
<path style="fill:#333333;" d="M511.627,193.434L466.142,37.702c-1.158-3.966-4.794-6.691-8.925-6.691h-95.098H256H149.868H54.77
	c-4.132,0-7.767,2.726-8.925,6.692L0.373,193.436C0.125,194.282,0,195.16,0,196.041v4.475c0,22.671,11.232,44.022,29.629,56.963
	v185.35c0,21.04,17.118,38.158,38.158,38.158H444.2c21.04,0,38.158-17.118,38.158-38.158V257.49
	C500.763,244.535,512,223.179,512,200.517v-4.475C512,195.16,511.875,194.282,511.627,193.434z M265.298,49.607h88.588
	l17.327,142.123c0.01,0.119,0.022,0.238,0.036,0.357l0,0l0.001,0.009c0.258,2.106,0.389,4.242,0.389,6.352
	c0,29.263-23.858,53.072-53.184,53.072c-29.312,0-53.159-23.847-53.159-53.159L265.298,49.607L265.298,49.607z M158.103,49.607h88.6
	V198.36c0,29.312-23.852,53.159-53.171,53.159c-29.318,0-53.171-23.796-53.171-53.047c0-2.052,0.131-4.221,0.389-6.446l0.001-0.005
	l0,0c0.004-0.032,0.009-0.064,0.012-0.098L158.103,49.607z M18.596,200.517v-3.145L61.741,49.607h77.628l-17.063,140.046
	c-0.005,0.04-0.01,0.081-0.015,0.12h-0.001l-2.057,16.905c-1.514,12.393-7.485,23.762-16.818,32.014
	c-9.344,8.27-21.354,12.826-33.818,12.826c-9.148,0-18.117-2.446-25.936-7.073l-0.002-0.015
	C28.2,235.292,18.596,218.465,18.596,200.517z M444.2,462.393H67.787c-10.787,0-19.563-8.776-19.563-19.563V266.753
	c6.869,2.212,14.079,3.361,21.373,3.361c17.009,0,33.397-6.215,46.14-17.494c6.213-5.494,11.327-12.005,15.184-19.192
	c12.3,21.868,35.748,36.687,62.61,36.687c26.76,0,50.13-14.73,62.468-36.496c12.336,21.766,35.702,36.496,62.458,36.496
	c26.863,0,50.314-14.819,62.618-36.693c3.854,7.187,8.963,13.699,15.173,19.194c12.745,11.284,29.133,17.497,46.143,17.497
	c7.293,0,14.503-1.15,21.373-3.361V442.83C463.763,453.617,454.987,462.393,444.2,462.393z M493.404,200.517
	c0,17.941-9.61,34.774-25.078,43.93c-7.819,4.627-16.787,7.073-25.935,7.073c-12.465,0-24.474-4.555-33.818-12.826
	c-9.324-8.254-15.293-19.623-16.807-32.014l-2.026-16.585c-0.016-0.203-0.038-0.404-0.067-0.604L372.62,49.607h77.627
	l43.158,147.765V200.517z"/>
<path style="fill:#FFFFFF;" d="M380.033,438.603c-34.192,0-62.01-27.818-62.01-62.01s27.818-62.01,62.01-62.01
	c16.57,0,32.144,6.449,43.853,18.157c3.631,3.631,3.631,9.519,0,13.148c-3.631,3.631-9.518,3.631-13.148,0
	c-8.197-8.197-19.101-12.711-30.704-12.711c-23.939,0-43.415,19.475-43.415,43.415s19.476,43.415,43.415,43.415
	c20.748,0,38.143-14.631,42.412-34.117h-42.413c-5.135,0-9.298-4.163-9.298-9.298c0-5.135,4.163-9.298,9.298-9.298h52.712
	c5.135,0,9.298,4.163,9.298,9.298C442.043,410.785,414.225,438.603,380.033,438.603z"/>
<g>
</g>
<g>
</g>
<g>
</g>
<g>
</g>
<g>
</g>
<g>
</g>
<g>
</g>
<g>
</g>
<g>
</g>
<g>
</g>
<g>
</g>
<g>
</g>
<g>
</g>
<g>
</g>
<g>
</g>
</svg>
