<svg id="Layer_1" height="512" viewBox="0 0 512 512" width="512" xmlns="http://www.w3.org/2000/svg" data-name="Layer 1"><path d="m178.68 360.96a15.425 15.425 0 1 0 10.91 4.52 15.386 15.386 0 0 0 -10.91-4.52zm77.32 3.47a15.425 15.425 0 1 0 10.91 4.52 15.386 15.386 0 0 0 -10.91-4.52zm77.32-3.47a15.425 15.425 0 1 0 10.91 4.52 15.386 15.386 0 0 0 -10.91-4.52zm107.57-246.36v172.99c0 41.26-27.59 93.35-61.63 116.56l-123.26 84.06-123.26-84.06c-34.04-23.21-61.63-75.56-61.63-116.56v-173.25l184.89-90.55zm-51.51 122.21h-.14a46.056 46.056 0 0 0 -46.06-46.26 45.281 45.281 0 0 0 -8.85.67c.01-.33.01-.65.01-.98a77.54 77.54 0 0 0 -152.14-21.13 67.6 67.6 0 0 0 -59.58 67.13v.02s0 .06.01.55h-.01a53.74 53.74 0 0 0 53.74 53.74h159.28a53.74 53.74 0 0 0 53.74-53.74z" fill="#00acea"/><path d="m389.24 236.81h.14a53.74 53.74 0 0 1 -53.74 53.74h-159.28a53.74 53.74 0 0 1 -53.74-53.74h.01c-.01-.49-.01-.55-.01-.55v-.02a67.6 67.6 0 0 1 59.58-67.13 77.54 77.54 0 0 1 152.14 21.13c0 .33 0 .65-.01.98a45.281 45.281 0 0 1 8.85-.67 46.056 46.056 0 0 1 46.06 46.26z" fill="#00efd1"/><g fill="#fedb41"><path d="m333.32 360.96a15.425 15.425 0 1 1 -10.91 4.52 15.386 15.386 0 0 1 10.91-4.52z"/><path d="m256 364.43a15.425 15.425 0 1 1 -10.91 4.52 15.386 15.386 0 0 1 10.91-4.52z"/><path d="m178.68 360.96a15.425 15.425 0 1 1 -10.91 4.52 15.386 15.386 0 0 1 10.91-4.52z"/></g><path d="m443.59 109.214-184.917-90.814a6.039 6.039 0 0 0 -5.3 0l-184.95 90.551a6.06 6.06 0 0 0 -3.423 5.389v173.25c0 42.849 28.877 97.362 64.3 121.517l123.288 84.06a6.034 6.034 0 0 0 6.782 0l123.263-84.06c17.263-11.77 33.48-30.829 45.56-53.663 12.093-22.851 18.807-46.944 18.807-67.854v-172.99a6.052 6.052 0 0 0 -3.41-5.386zm-8.59 178.376c0 39.352-26.527 89.417-59.066 111.6l-119.906 81.757-119.949-81.754c-32.538-22.186-59.079-72.251-59.079-111.603v-169.508l179-87.609 179 87.864z" fill="#083863"/><path d="m177.59 163.714a73.532 73.532 0 0 0 -60.97 72.546s0 .042 0 .318v.457c0 32.94 26.8 59.965 59.74 59.965h35.64v28h-33.32a5.667 5.667 0 0 0 -5.68 5.92v24.9a18.9 18.9 0 0 0 -9.312 5.419 21.349 21.349 0 1 0 30.148 0h.158a23.559 23.559 0 0 0 -8.994-5.421v-18.818h33a6.069 6.069 0 0 0 6-6.08v-33.92h26v62.288a21.428 21.428 0 1 0 12 0v-62.288h28v33.92a5.853 5.853 0 0 0 5.74 6.08h31.26v18.818a23.548 23.548 0 0 0 -8.993 5.419 21.476 21.476 0 0 0 .12 30.295h.02a21.376 21.376 0 1 0 30.165-30.294 18.9 18.9 0 0 0 -9.312-5.42v-24.9a5.667 5.667 0 0 0 -5.68-5.92h-31.32v-27.998h33.64c32.941 0 59.74-27.025 59.74-59.965a7.045 7.045 0 0 0 -.158-1.485 52.265 52.265 0 0 0 -52.042-50.944c-.988 0-2-.018-3.029.015a83.544 83.544 0 0 0 -162.561-20.907zm7.758 206.01a9.425 9.425 0 1 1 -6.668-2.764 9.355 9.355 0 0 1 6.668 2.764zm77.323 16.79a9.425 9.425 0 1 1 0-13.321 9.454 9.454 0 0 1 0 13.321zm80.074-10.129a9.424 9.424 0 0 1 -16.092 6.663 9.425 9.425 0 1 1 16.092-6.663zm-85.945-257.665a71.611 71.611 0 0 1 71.54 71.52c0 .269 0 .53-.007.8a6 6 0 0 0 7.167 6.06 40.97 40.97 0 0 1 47.74 39.71 8.389 8.389 0 0 0 .125 1.446 47.99 47.99 0 0 1 -47.725 46.744h-159.28a47.988 47.988 0 0 1 -47.739-47.639c.008-.149.011-.412.008-.562l-.009-.5a61.538 61.538 0 0 1 54.28-61.199 6.012 6.012 0 0 0 5.076-4.336 71.832 71.832 0 0 1 68.824-52.044z" fill="#083863"/></svg>